<?xml version="1.0" encoding="iso-8859-1"?>
<!-- Uploaded to: SVG Repo, www.svgrepo.com, Generator: SVG Repo Mixer Tools -->
<svg height="800px" width="800px" version="1.1" id="Layer_1" xmlns="http://www.w3.org/2000/svg" xmlns:xlink="http://www.w3.org/1999/xlink" 
	 viewBox="0 0 512 512" xml:space="preserve">
<path style="fill:#00B4D7;" d="M256,450.021c107.143,0,194.021-86.878,194.021-194.021S363.143,61.979,256,61.979
	S61.979,148.857,61.979,256S148.857,450.021,256,450.021z"/>
<path style="fill:#AFB6BB;" d="M256,503.916c136.893,0,247.916-111.023,247.916-247.916S392.893,8.084,256,8.084
	S8.084,119.107,8.084,256S119.107,503.916,256,503.916z M450.021,256c0,107.143-86.878,194.021-194.021,194.021
	S61.979,363.143,61.979,256S148.857,61.979,256,61.979S450.021,148.857,450.021,256z"/>
<path style="fill:#0093C4;" d="M61.979,256c0-107.143,86.878-194.021,194.021-194.021v388.042
	C148.857,450.021,61.979,363.143,61.979,256z"/>
<path d="M256,512C114.841,512,0,397.159,0,256S114.841,0,256,0s256,114.841,256,256S397.159,512,256,512z M256,16.168
	C123.756,16.168,16.168,123.756,16.168,256S123.756,495.832,256,495.832S495.832,388.244,495.832,256S388.244,16.168,256,16.168z"/>
<path d="M256,458.105c-111.441,0-202.105-90.664-202.105-202.105S144.559,53.895,256,53.895S458.105,144.559,458.105,256
	S367.441,458.105,256,458.105z M256,70.063C153.474,70.063,70.063,153.474,70.063,256S153.474,441.937,256,441.937
	S441.937,358.526,441.937,256S358.526,70.063,256,70.063z"/>
<polygon style="fill:#F1F2F2;" points="293.726,110.484 148.211,256 293.726,401.516 336.842,358.4 234.442,256 336.842,153.6 "/>
<path d="M293.726,412.948L136.778,256L293.726,99.052l54.548,54.548L245.874,256l102.4,102.4L293.726,412.948z M159.643,256
	l134.084,134.084L325.41,358.4L223.01,256l102.4-102.4l-31.684-31.684L159.643,256z"/>
<path style="fill:#FFFFFF;" d="M118.568,256H102.4c0-32.85,10.527-63.969,30.44-89.993c19.276-25.188,46.596-43.839,76.932-52.517
	l4.446,15.545c-27.017,7.729-51.357,24.349-68.537,46.798C127.944,199.012,118.568,226.733,118.568,256z"/>
</svg>